<?xml version="1.0" encoding="utf-8"?>
<!-- Generator: Adobe Illustrator 16.0.0, SVG Export Plug-In . SVG Version: 6.00 Build 0)  -->
<!DOCTYPE svg PUBLIC "-//W3C//DTD SVG 1.1 Tiny//EN" "http://www.w3.org/Graphics/SVG/1.1/DTD/svg11-tiny.dtd">
<svg version="1.1" baseProfile="tiny" id="Layer_1" xmlns="http://www.w3.org/2000/svg" xmlns:xlink="http://www.w3.org/1999/xlink"
	 x="0px" y="0px" width="233.131px" height="235.557px" viewBox="0 0 233.131 235.557" xml:space="preserve">
<path fill="#ED1E25" d="M227.794,134.629c0.243-1.725,0.277-3.464,0.41-5.189c-0.128-1.051-0.412-0.715-0.499-1.416
	c-0.449-0.034-0.823-3.976-1.273-5.319c0-0.059,0.002-0.118,0.002-0.177c0-38.823-21.572-72.604-53.38-90.021
	c-1.542-1.318-3.031-2.559-4.44-3.716c-6.234-3.224-12.857-5.914-19.837-7.985c-15.377-4.475-31.668-5.244-47.37-2.383
	C85.701,21.28,70.537,27.567,57.105,37c-4.922,3.34-12.132,9.624-18.186,16.921c-0.751,0.915-1.503,1.83-2.25,2.739
	c-0.749,0.908-1.418,1.867-2.123,2.783c-1.425,1.822-2.657,3.708-3.888,5.462c-1.213,1.766-2.255,3.506-3.295,5.055
	C26.396,71.549,25.52,73,24.71,74.233c0,0,0.258-0.512,0.742-1.473c0.243-0.481,0.542-1.073,0.893-1.769
	c0.34-0.702,0.768-1.49,1.273-2.358c0.496-0.873,1.045-1.84,1.643-2.892c0.607-1.047,1.334-2.136,2.076-3.323
	c0.379-0.587,0.753-1.207,1.171-1.82c0.428-0.608,0.868-1.233,1.319-1.875c0.453-0.641,0.917-1.298,1.394-1.97
	c0.482-0.668,1.018-1.32,1.542-2.003c4.206-5.448,9.678-11.394,16.291-16.916c6.605-5.522,14.403-10.504,22.688-14.435
	c8.309-3.891,17.125-6.619,25.535-8.191c8.421-1.575,16.423-1.917,23.21-1.687c6.803,0.202,12.398,1.184,16.28,1.87
	c1.928,0.423,3.443,0.756,4.477,0.982c0.518,0.104,0.905,0.229,1.169,0.296c0.264,0.072,0.4,0.109,0.4,0.109
	c-1.227-0.504-2.474-0.897-3.695-1.379c0,0-0.289-0.073-0.832-0.21c-0.545-0.124-1.337-0.358-2.363-0.559
	c-1.027-0.203-2.275-0.449-3.706-0.731c-1.432-0.313-3.069-0.477-4.852-0.752c-7.126-0.966-16.844-1.438-26.54-0.24
	c-1.209,0.151-2.424,0.285-3.629,0.454c-1.2,0.208-2.395,0.415-3.58,0.62c-0.594,0.106-1.185,0.212-1.773,0.318
	c-0.583,0.131-1.162,0.262-1.739,0.392c-1.154,0.265-2.294,0.527-3.416,0.785c-2.211,0.623-4.375,1.186-6.38,1.854
	c-1.002,0.341-1.977,0.673-2.92,0.995c-0.471,0.163-0.935,0.323-1.39,0.48c-0.447,0.177-0.886,0.351-1.315,0.521
	c-1.711,0.7-3.314,1.28-4.673,1.927c-1.368,0.632-2.561,1.183-3.544,1.637c-0.982,0.457-1.72,0.881-2.239,1.14
	c-0.514,0.271-0.788,0.415-0.788,0.415c-3.909,2.2-7.724,4.638-11.7,7.134c0,0,0.171-0.128,0.486-0.334
	c0.312-0.209,0.758-0.507,1.293-0.866c1.082-0.698,2.47-1.706,3.964-2.554c1.479-0.868,2.938-1.764,4.065-2.378
	c1.135-0.601,1.892-1.001,1.892-1.001c5.08-2.926,10.208-5.643,15.689-7.945c5.467-2.315,11.256-4.312,17.564-5.646
	c1.968-0.293,4.02-0.519,6.104-0.682c2.098-0.07,4.219-0.179,6.34-0.144c4.246,0.062,8.445,0.32,12.342,0.57
	c6.379,0.467,12.051,2.698,17.638,4.8c0,0,0.691,0.174,1.726,0.436c1.041,0.234,2.395,0.694,3.755,1.1
	c1.36,0.411,2.713,0.831,3.707,1.216c0.999,0.363,1.665,0.604,1.665,0.604c1.084,0.208,2.245,0.449,3.384,0.855
	c-0.033-0.034-0.097-0.091-0.115-0.13c-1.748-2.132-8.621-6.559-19.35-10.029c-5.347-1.722-11.63-3.227-18.485-3.943
	c-6.85-0.764-14.287-0.873-21.779-0.1c-7.491,0.762-15.019,2.403-22.026,4.761c-7.022,2.329-13.48,5.423-19.02,8.723
	c-5.555,3.283-10.216,6.753-13.757,9.883c-0.886,0.783-1.731,1.514-2.489,2.233c-0.738,0.74-1.425,1.43-2.058,2.064
	c-0.625,0.643-1.188,1.236-1.686,1.779c-0.492,0.547-0.889,1.072-1.236,1.519c-4.487,5.666-7.442,12.106-9.869,18.706
	c-2.425,6.628-4.417,13.36-6.984,20.385c-0.91,2.328-1.879,4.413-2.765,6.389c-0.867,1.979-1.429,3.932-1.49,5.915
	c0.543,0.57,0.617,2.577,0.663,4.544c-0.57,2.373-1.051,4.758-1.723,7.073c-0.301,1.165-0.556,2.332-0.841,3.482
	c-0.266,1.153-0.581,2.289-0.76,3.428c-0.388,2.272-0.802,4.484-0.824,6.621c-0.069,2.132,0.03,4.167,0.561,6.05
	c0.224,1.314-0.391,3.181-1.118,5.332c-0.385,1.076-0.848,2.222-1.344,3.399c-0.51,1.176-0.936,2.38-1.412,3.569
	c-0.459,1.188-0.915,2.359-1.3,3.456c-0.35,1.093-0.649,2.114-0.865,3.002c-0.426,1.776-0.528,3.014,0.013,3.231
	c3.944,1.577,4.456,1.719,4.259,3.145c-0.088,0.705-0.415,1.73-0.444,3.361c-0.026,0.817-0.004,1.792,0.11,2.959
	c0.062,0.583,0.126,1.219,0.258,1.898c0.138,0.677,0.307,1.407,0.513,2.192c0.182,0.765,1.27,2.193,2.523,3.726
	c1.263,1.535,2.501,3.231,2.948,4.703c1.184,5.104,2.833,8.126,4.904,11.051c0.527,0.729,1.076,1.457,1.651,2.215
	c0.288,0.377,0.583,0.764,0.887,1.162c0.318,0.388,0.646,0.787,0.985,1.201c1.313,1.655,2.811,3.543,4.649,5.86
	c1.4,1.678,2.748,3.112,3.88,4.495c1.117,1.395,2.215,2.592,3.15,3.774c0.469,0.589,0.92,1.157,1.358,1.707
	c0.45,0.541,0.886,1.064,1.312,1.575c0.855,1.02,1.623,2.035,2.465,2.963c1.685,1.856,3.354,3.662,5.597,5.335
	c0.552,0.427,1.129,0.854,1.74,1.283c0.614,0.424,1.291,0.816,1.989,1.228c1.411,0.807,2.939,1.663,4.762,2.401
	c0.863,0.388,6.323,3.702,11.872,6.16c5.521,2.525,10.958,4.396,10.958,4.396c8.073,3.887,15.234,5.45,21.777,6.765
	c6.587,1.274,12.617,2.339,19.535,4.171c8.117-1.242,17.325-1.798,26.624-3.59c9.242-1.844,18.479-4.887,25.779-9.284
	c7.313-4.321,12.26-7.653,16.895-11.018c4.615-3.375,8.841-6.912,13.804-12.408c1.37-1.613,2.451-3.121,3.462-4.392
	c0.955-1.318,1.774-2.458,2.552-3.409c0.806-0.935,1.779-2.837,2.954-4.835c0.564-1.016,1.103-2.11,1.669-3.149
	c0.287-0.518,0.57-1.028,0.845-1.524c0.264-0.501,0.521-0.988,0.764-1.451l-0.206,1.088c0.33-0.62,0.821-1.546,1.313-2.472
	c0.498-0.92,0.994-1.84,1.278-2.482c0.601-1.263,0.536-0.9,0.476-0.539c-0.123,0.725-0.23,1.46,0.882-0.734
	c2.511-5.302,4.657-10.907,6.424-16.764c1.555-5.848,2.667-11.703,3.404-17.51C227.802,135.855,227.76,135.451,227.794,134.629z"/>
</svg>
