<?xml version="1.0" encoding="utf-8"?>
<!-- Generator: Adobe Illustrator 16.0.0, SVG Export Plug-In . SVG Version: 6.00 Build 0)  -->
<!DOCTYPE svg PUBLIC "-//W3C//DTD SVG 1.1 Tiny//EN" "http://www.w3.org/Graphics/SVG/1.1/DTD/svg11-tiny.dtd">
<svg version="1.1" baseProfile="tiny" id="Layer_1" xmlns="http://www.w3.org/2000/svg" xmlns:xlink="http://www.w3.org/1999/xlink"
	 x="0px" y="0px" width="221px" height="253px" viewBox="0 0 221 253" xml:space="preserve">
<path d="M49.576,24.747c0,0-2.343,0.8,0.928-1.495l2.417-2.127l1.427-2.049l2.011-1.194c0,0,0.114,0.089,0.528,0.531
	c0.399,0.45,1.159,1.219,2.298,2.679c2.198,2.937,6.38,8.562,10.605,20.331c0,0,0.253,0.574,0.659,1.648
	c0.201,0.54,0.447,1.202,0.735,1.974c0.292,0.774,0.6,1.667,0.881,2.672c1.273,3.994,2.549,9.752,3.079,16.451
	c0,0,0.026,0.379,0.076,1.092c0.053,0.713,0.129,1.759,0.149,3.095c0.094,2.67,0.161,6.495-0.08,11.092
	c-0.176,4.6-0.766,9.964-1.726,15.694c-0.966,5.729-2.416,11.818-4.451,17.809c-2.015,5.994-4.587,11.894-7.616,17.237
	c-3.022,5.345-6.488,10.128-10.018,13.979c-1.834,1.869-3.504,3.646-5.254,5.047c-0.861,0.71-1.631,1.434-2.449,2.016
	c-0.817,0.58-1.583,1.124-2.295,1.628c-1.392,1.044-2.743,1.692-3.74,2.27c-1.017,0.554-1.754,0.943-2.23,1.065
	c0,0,0.226-0.102,0.634-0.319c0.397-0.237,0.979-0.586,1.722-1.029c0.732-0.459,1.668-0.96,2.66-1.649
	c0.979-0.708,2.084-1.509,3.292-2.384c1.155-0.936,2.365-2.001,3.67-3.115c1.223-1.184,2.509-2.451,3.799-3.801
	c2.476-2.778,5.016-5.872,7.178-9.224c4.442-6.647,7.815-14.003,9.894-19.915c2.086-5.917,3.071-10.344,3.158-11.304
	c0,0-0.044,0.222-0.167,0.632c-0.118,0.411-0.292,1.014-0.512,1.783c-0.222,0.768-0.493,1.701-0.803,2.773
	c-0.356,1.061-0.759,2.259-1.2,3.569c-1.814,5.216-4.716,12.1-8.694,18.599l-0.73,1.225l-0.802,1.188
	c-0.536,0.789-1.071,1.577-1.604,2.361c-1.097,1.547-2.297,3.009-3.418,4.453c-1.24,1.367-2.392,2.734-3.605,3.954
	c-1.259,1.182-2.392,2.369-3.589,3.352c-4.669,4.079-8.821,6.104-9.906,6.448c0,0,0.761-0.457,2.102-1.262
	c0.691-0.376,1.428-0.974,2.321-1.603c0.869-0.658,1.926-1.323,2.918-2.233c4.207-3.385,9.171-8.749,13.154-14.92
	c4.035-6.141,7.132-12.978,9.022-18.577c0.238-0.7,0.469-1.377,0.692-2.029c0.188-0.662,0.368-1.298,0.54-1.905
	c0.332-1.217,0.644-2.316,0.857-3.288c0.394-1.952,0.598-3.347,0.552-3.988c0,0-0.224,0.761-0.62,2.105
	c-0.207,0.67-0.422,1.493-0.738,2.422c-0.321,0.927-0.685,1.975-1.083,3.122c-1.646,4.563-4.206,10.61-7.672,16.375
	c-3.424,5.784-7.788,11.207-11.904,14.969c-1.024,0.945-1.979,1.839-2.964,2.546c-0.963,0.729-1.825,1.41-2.629,1.956
	c-1.664,1.027-2.914,1.732-3.62,2.022c0,0,0.49-0.33,1.258-0.846c0.751-0.54,1.853-1.187,2.887-2.047
	c1.033-0.86,2.158-1.749,3.071-2.603c0.882-0.885,1.623-1.663,2.023-2.158c0,0-0.849,0.72-1.698,1.44
	c-0.822,0.742-1.746,1.365-1.746,1.365s0.331-0.295,0.827-0.736c0.462-0.478,1.077-1.115,1.692-1.753
	c0.605-0.646,1.252-1.257,1.671-1.774c0.426-0.51,0.71-0.851,0.71-0.851s0.723-0.734,1.445-1.469
	c0.748-0.719,1.394-1.522,1.394-1.522s-0.115,0.131-0.318,0.362c-0.199,0.234-0.492,0.562-0.88,0.929
	c-0.76,0.737-1.778,1.725-2.815,2.731c-1.114,0.923-2.248,1.842-3.156,2.536c-0.931,0.67-1.686,1.064-1.913,1.095
	c0,0-0.804,0.958,0.188,0.244c0.248-0.179,0.609-0.463,1.125-0.894c0.521-0.425,1.114-1.083,1.927-1.903
	c0.4-0.417,0.847-0.882,1.346-1.402c0.471-0.545,0.967-1.169,1.524-1.848c0.538-0.695,1.197-1.398,1.78-2.275
	c0.601-0.862,1.254-1.798,1.961-2.813c0,0,0.128-0.134,0.342-0.425c0.211-0.293,0.526-0.731,0.942-1.308
	c0.411-0.583,0.921-1.307,1.528-2.166c0.567-0.885,1.188-1.936,1.902-3.121c2.769-4.768,6.316-12.208,8.716-22.308
	c2.407-10.046,3.794-22.769,2.04-36.979c-0.883-7.082-2.562-14.515-5.345-21.852c-0.319-0.926-0.719-1.828-1.113-2.734
	c-0.399-0.904-0.772-1.822-1.2-2.719c-0.913-1.768-1.75-3.586-2.821-5.289c-0.527-0.853-0.985-1.75-1.575-2.566
	c-0.567-0.823-1.138-1.65-1.712-2.483c-0.583-0.817-1.247-1.576-1.865-2.364c-0.319-0.386-0.618-0.789-0.953-1.16L49.576,24.747z"/>
<path d="M72.188,105.347c0.104-0.309,0.238-0.746,0.397-1.295c0.132-0.554,0.291-1.219,0.472-1.978
	c0.35-1.521,0.799-3.417,1.144-5.576c0.821-4.299,1.39-9.614,1.703-14.777c0.056-1.292,0.11-2.575,0.164-3.829
	c0.037-1.255,0.017-2.484,0.025-3.667c0.042-2.365-0.109-4.55-0.169-6.409c-0.068-1.86-0.252-3.394-0.322-4.465
	c-0.089-1.07-0.14-1.676-0.14-1.676c-0.405-3.866-1.144-8.841-2.607-14.005c-1.415-5.167-3.379-10.531-5.665-15.228
	c-2.327-4.688-4.866-8.711-6.948-11.458c-0.483-0.706-0.987-1.306-1.431-1.832c-0.439-0.525-0.818-0.978-1.127-1.348
	c-0.619-0.734-0.961-1.14-0.961-1.14"/>
<path d="M68.718,105.772c0,0-0.188,0.673-0.522,1.87c-0.333,1.197-0.929,2.887-1.598,4.954c-1.462,4.097-3.659,9.601-6.684,15.055
	c-2.99,5.467-6.841,10.83-10.693,14.928c-3.866,4.101-7.662,6.891-9.731,8.224"/>
<path d="M55.754,34.544c0,0-0.494,0.384-0.691,0.366s-0.112-0.45,1.01-2.103c0,0,0.373-0.714,0.746-1.428
	c0.366-0.719,0.731-1.438,0.731-1.438s0.131-0.62,0.262-1.239c0.117-0.628,0.234-1.257,0.234-1.257l1.458-1.827
	c0,0,0.159,0.056,0.795,0.383c0.316,0.17,0.753,0.404,1.353,0.726c0.297,0.168,0.635,0.359,1.019,0.576
	c0.351,0.25,0.743,0.53,1.181,0.842c1.779,1.23,4.213,3.162,7.164,6.106c1.522,1.46,3.107,3.169,4.938,5.058
	c0.902,0.917,1.859,1.977,2.875,2.942c1.014,0.997,2.086,2.089,3.219,3.03c0,0,0.478,0.368,1.353,1.042
	c0.93,0.648,2.393,1.539,4.114,2.713c0.431,0.294,0.884,0.603,1.357,0.925c0.482,0.313,1.021,0.605,1.558,0.931
	c1.083,0.642,2.235,1.34,3.444,2.093c1.207,0.756,2.584,1.404,3.948,2.188c0.686,0.386,1.387,0.78,2.102,1.182
	c0.738,0.366,1.491,0.738,2.255,1.116c0,0,1.382,0.696,3.813,1.921c1.256,0.548,2.783,1.215,4.538,1.981
	c0.866,0.405,1.834,0.755,2.851,1.136c1.016,0.383,2.084,0.786,3.201,1.208c2.234,0.841,4.754,1.584,7.375,2.472
	c2.712,0.778,5.579,1.601,8.553,2.455c6.136,1.716,12.595,3.602,19.112,5.381c6.512,1.777,13.065,3.444,19.316,4.727
	c6.249,1.296,12.192,2.207,17.438,2.75c1.312,0.123,2.58,0.242,3.798,0.355c1.217,0.064,2.384,0.125,3.496,0.183
	c0.557,0.031,1.1,0.062,1.628,0.092c0.526,0.004,1.038,0.009,1.534,0.013c0.994,0.014,1.928,0.027,2.794,0.039
	c1.734,0.022,3.185-0.081,4.337-0.071c1.149,0.001,1.983,0.001,2.46,0.001c0,0-0.243,0.027-0.7,0.077
	c-0.457,0.05-1.139,0.063-2,0.112c-0.862,0.044-1.91,0.097-3.114,0.158c-1.21-0.001-2.577-0.003-4.071-0.004
	c-5.979-0.078-14.02-0.847-22.144-2.384c-8.127-1.521-16.337-3.644-22.794-5.389c-6.454-1.746-11.171-3.069-12.215-3.18
	c0,0,3.759,1.121,9.47,2.823c5.7,1.655,13.329,3.825,21.151,5.532c7.819,1.737,15.842,2.943,22.214,3.421
	c3.189,0.301,5.95,0.312,8.079,0.439c2.116,0.015,3.593,0.045,4.194,0.161c0,0-0.927,0.047-2.559,0.13
	c-0.407,0.021-0.859,0.045-1.351,0.071c-0.495,0-1.03,0-1.602,0c-1.144-0.003-2.437-0.007-3.85-0.011
	c-5.662-0.142-13.266-0.886-20.982-2.279c-7.719-1.369-15.553-3.262-21.82-4.783c-6.265-1.521-10.979-2.641-12.399-2.595
	c0,0,3.361,1.018,8.505,2.577c5.143,1.53,12.072,3.524,19.281,5.235c7.205,1.727,14.709,3.086,20.877,3.796
	c6.164,0.737,10.974,0.917,12.705,1.228c0,0-0.678,0.026-1.741-0.018c-1.061-0.024-2.505-0.057-4.04-0.092
	c-3.065-0.177-6.474-0.378-7.918-0.424c0,0,1.25,0.203,2.5,0.406c1.258,0.15,2.516,0.3,2.516,0.3s-0.508-0.016-1.271-0.039
	c-0.763-0.013-1.779-0.056-2.792-0.148c-2.027-0.154-4.055-0.308-4.055-0.308l-4.623-0.868c0,0,0.781,0.156,1.966,0.394
	c1.187,0.235,2.777,0.593,4.412,0.85c3.259,0.626,6.683,1.084,7.13,1.376c0,0,1.467-0.137,0.036-0.306
	c-0.713-0.111-2.157-0.118-4.853-0.326c-2.696-0.196-6.661-0.446-12.379-1.219c0,0-0.837-0.17-2.457-0.501
	c-1.607-0.387-4.011-0.856-7.109-1.598c-6.212-1.42-15.234-3.752-26.676-6.798c-5.728-1.528-12.065-3.092-19.018-4.813
	c-6.918-1.827-14.375-4.033-22.12-7.22c-7.75-3.202-15.713-7.369-23.528-13.187c-0.956-0.798-1.917-1.602-2.885-2.411
	c-0.896-0.829-1.798-1.662-2.706-2.5c-1.727-1.658-3.475-3.337-5.244-5.036C62.986,39.474,59.458,36.437,55.754,34.544z"/>
<path d="M143.897,74.412c0,0,2.957,0.844,7.553,2.157c4.595,1.297,10.832,2.961,17.437,4.425c6.602,1.471,13.583,2.654,19.59,3.269
	c1.501,0.13,2.942,0.317,4.298,0.39c1.358,0.078,2.631,0.15,3.799,0.217c2.336,0.099,4.251,0.079,5.581,0.142"/>
<path d="M129.273,75.148c0,0,3.405,1.018,8.584,2.567c5.183,1.554,12.145,3.663,19.339,5.6c7.19,1.949,14.637,3.649,20.64,4.704
	c5.995,1.098,10.532,1.553,11.744,1.757"/>
<path d="M208.192,76.632c0,0,0.116-2.564,1.379,1.228l1.412,2.896l1.639,1.908l0.503,2.296c0,0-0.515,0.361-4.095,1.99
	c-0.899,0.396-1.958,0.946-3.258,1.558c-1.296,0.622-2.83,1.321-4.575,2.24c-1.76,0.89-3.781,1.898-6.03,3.171
	c-2.288,1.201-4.763,2.725-7.564,4.4c0,0-0.526,0.392-1.491,1.111c-0.486,0.351-1.083,0.781-1.779,1.284
	c-0.35,0.247-0.725,0.511-1.124,0.792c-0.387,0.296-0.796,0.61-1.228,0.94c-0.867,0.648-1.822,1.361-2.853,2.131
	c-1.027,0.769-2.078,1.659-3.23,2.546c-0.568,0.454-1.174,0.894-1.761,1.383c-0.583,0.493-1.182,0.998-1.792,1.514
	c-0.616,0.508-1.246,1.026-1.887,1.555c-0.645,0.525-1.249,1.115-1.896,1.678c0,0-0.292,0.256-0.842,0.737
	c-0.532,0.499-1.398,1.147-2.35,2.125c-0.966,0.963-2.179,2.1-3.509,3.464c-0.641,0.705-1.323,1.455-2.043,2.247
	c-0.722,0.791-1.499,1.609-2.212,2.544c-0.739,0.915-1.51,1.869-2.309,2.857c-0.792,0.994-1.51,2.097-2.309,3.19
	c-0.394,0.551-0.792,1.11-1.197,1.677c-0.385,0.579-0.743,1.188-1.124,1.79c-0.735,1.217-1.566,2.438-2.277,3.723
	c-0.697,1.288-1.407,2.6-2.127,3.93c-0.379,0.644-0.68,1.391-1.019,2.098c-0.347,0.75-0.696,1.505-1.047,2.263
	c-1.399,3.029-2.802,6.1-4.163,9.194c-2.724,6.186-5.278,12.467-7.389,18.499c-2.085,6.028-3.76,11.811-4.704,16.882
	c-0.478,2.532-0.824,4.893-0.961,6.992c-0.114,1.063-0.091,2.032-0.141,2.968c0.042,0.899-0.009,1.785,0.083,2.541
	c0.212,3.107,0.794,4.98,0.937,5.75c0,0-0.068-0.189-0.196-0.547c-0.059-0.182-0.158-0.388-0.23-0.662
	c-0.07-0.276-0.15-0.595-0.241-0.951c-0.344-1.431-0.69-3.604-0.659-6.402c-0.004-5.59,1.594-13.479,4.112-21.328
	c2.502-7.868,5.771-15.737,8.442-21.877c2.678-6.139,4.73-10.598,5.004-11.62c0,0-1.737,3.558-4.238,8.953
	c-2.495,5.397-5.717,12.674-8.439,20.219c-2.74,7.532-4.9,15.366-5.638,21.524c-0.816,6.182-0.051,10.444,0.005,11.519
	c0,0-0.053-0.204-0.152-0.588c-0.12-0.374-0.218-0.96-0.341-1.708c-0.161-0.731-0.204-1.682-0.318-2.745
	c-0.038-1.09-0.086-2.317-0.023-3.688c0.166-5.47,1.691-12.955,4.024-20.444c4.646-15.015,11.85-30.098,12.159-32.949
	c0,0-1.563,3.173-3.85,8.051c-2.286,4.879-5.267,11.487-7.918,18.444c-2.666,6.948-4.939,14.269-6.096,20.374
	c-0.587,3.049-0.926,5.784-1.073,7.98c-0.055,1.096-0.107,2.06-0.125,2.857c-0.001,0.796-0.022,1.433-0.067,1.878
	c0,0-0.049-0.685-0.125-1.758c-0.044-1.072-0.086-2.53,0.005-4.072c0.127-3.087,0.643-6.485,0.76-7.934c0,0-0.072,0.31-0.18,0.773
	c-0.102,0.466-0.268,1.085-0.375,1.712c-0.12,0.628-0.239,1.255-0.329,1.726c-0.091,0.473-0.126,0.79-0.126,0.79
	s0.018-0.514,0.105-1.279c0.082-0.766,0.164-1.789,0.324-2.803c0.134-1.017,0.292-2.029,0.437-2.784
	c0.134-0.757,0.223-1.261,0.223-1.261s0.322-1.141,0.644-2.281c0.328-1.137,0.696-2.261,0.696-2.261c0.001,0-1.032,3.033-1.888,6.27
	c-0.891,3.222-1.538,6.681-1.816,7.137c0,0,0.098,1.502,0.305,0.046c0.099-0.728,0.218-2.192,0.59-4.908
	c0.369-2.717,1.036-6.681,2.457-12.327c0,0,0.28-0.815,0.822-2.392c0.546-1.574,1.364-3.902,2.498-6.904
	c2.243-6.015,5.818-14.69,10.626-25.6c2.286-5.49,5.211-11.479,9.043-17.605c3.834-6.128,8.64-12.389,14.532-18.427
	C172.977,96.75,189.109,85.705,208.192,76.632z"/>
<path d="M140.821,147.376c0,0-1.323,2.798-3.283,7.168c-1.954,4.371-4.523,10.331-6.851,16.71
	c-2.336,6.371-4.412,13.178-5.513,19.074c-0.563,2.946-0.891,5.653-1.046,7.94c-0.029,1.136-0.11,2.182-0.069,3.084
	c0.005,0.454,0.009,0.878,0.013,1.269c0.027,0.386,0.051,0.738,0.073,1.057"/>
<path d="M142.893,132.862c0,0-0.122,0.19-0.352,0.548c-0.226,0.361-0.517,0.915-0.91,1.608c-0.389,0.697-0.862,1.545-1.406,2.52
	c-0.271,0.488-0.561,1.009-0.866,1.558c-0.27,0.563-0.554,1.155-0.852,1.774c-2.362,4.907-5.539,11.52-8.492,18.424
	c-2.97,6.897-5.666,14.111-7.456,20.01c-1.797,5.895-2.684,10.464-2.974,11.689"/>
<path d="M14.058,165.633c0,0-0.581,2.432-0.882-1.553l-0.614-3.162l-1.056-2.269l0.024-2.342c0,0,0.544-0.225,4.258-0.837
	c1.86-0.231,4.518-0.606,8.314-0.8c1.9-0.141,4.078-0.132,6.587-0.175c1.253,0.029,2.587,0.06,4.006,0.092
	c1.422,0.026,2.92,0.166,4.518,0.258c0,0,0.646-0.02,1.826,0.019c1.177,0.06,2.895,0.15,5.044,0.331
	c4.277,0.451,10.292,1.369,16.956,3.436c0,0,0.375,0.122,1.081,0.352c0.702,0.24,1.748,0.544,3.053,1.023
	c1.302,0.489,2.894,1.058,4.704,1.764c0.897,0.376,1.853,0.776,2.861,1.198c1.011,0.414,2.068,0.868,3.152,1.396
	c8.73,3.976,20.097,10.61,29.649,20.047c4.772,4.688,9.043,10.039,12.378,15.605c3.36,5.557,5.686,11.336,7.166,16.551
	c0.824,2.591,1.223,5.098,1.686,7.345c0.343,2.268,0.544,4.323,0.722,6.093c0.122,3.561,0.151,6.004-0.086,6.963
	c0,0,0.008-0.25,0.021-0.72c0.03-0.469,0.021-1.159-0.029-2.039c-0.093-1.76-0.104-4.291-0.554-7.321
	c-0.094-0.759-0.191-1.551-0.292-2.371c-0.16-0.813-0.326-1.652-0.497-2.518c-0.175-0.865-0.355-1.756-0.539-2.667
	c-0.23-0.9-0.501-1.813-0.761-2.748c-0.275-0.929-0.509-1.893-0.835-2.839c-0.344-0.941-0.693-1.896-1.045-2.858
	c-0.647-1.955-1.615-3.812-2.46-5.737c-3.624-7.607-8.912-14.413-13.515-19.172c-2.268-2.434-4.455-4.264-6.063-5.693
	c-1.682-1.332-2.839-2.2-3.284-2.451c0,0,0.734,0.617,2.026,1.702c1.319,1.046,3.051,2.754,5.163,4.759
	c1.002,1.064,2.09,2.219,3.244,3.443c1.097,1.28,2.227,2.661,3.404,4.08c1.08,1.509,2.25,3.025,3.33,4.657
	c0.52,0.829,1.045,1.667,1.573,2.509l0.79,1.268l0.71,1.325l1.41,2.658c0.483,0.876,0.834,1.824,1.252,2.727
	c0.395,0.914,0.81,1.813,1.175,2.723c0.326,0.927,0.649,1.845,0.968,2.751c0.687,1.792,1.12,3.616,1.577,5.343
	c0.507,1.714,0.735,3.415,1.028,4.983c0.125,0.789,0.297,1.542,0.364,2.28c0.068,0.737,0.133,1.445,0.195,2.12
	c0.095,1.349,0.27,2.552,0.233,3.608c-0.007,2.107-0.066,3.558-0.183,4.139c0,0-0.04-0.909-0.108-2.511
	c-0.054-0.801-0.04-1.781-0.174-2.896c-0.137-1.118-0.292-2.381-0.461-3.762c-0.045-0.346-0.091-0.699-0.139-1.059
	c-0.072-0.355-0.145-0.719-0.219-1.088c-0.15-0.739-0.306-1.505-0.466-2.293c-0.271-1.59-0.789-3.214-1.271-4.918
	c-0.977-3.404-2.413-6.944-4.088-10.41c-3.349-6.957-8.236-13.229-12.586-17.664c-1.113-1.086-2.146-2.113-3.126-3.009
	c-1.012-0.858-1.936-1.625-2.751-2.279c-0.804-0.669-1.542-1.172-2.148-1.55c-0.603-0.382-1.072-0.642-1.387-0.762
	c0,0,0.634,0.539,1.752,1.491c0.572,0.459,1.198,1.106,1.949,1.809c0.737,0.719,1.603,1.494,2.485,2.413
	c3.574,3.624,7.978,8.96,11.468,15.078c3.547,6.089,5.956,12.965,7.089,18.647c0.469,2.868,0.896,5.381,0.922,7.418
	c0.051,1.012,0.081,1.89,0.088,2.613c-0.016,0.727-0.098,1.303-0.163,1.698c0,0,0.003-0.618-0.029-1.585
	c-0.093-0.964-0.218-2.275-0.352-3.669c-0.092-1.406-0.442-2.854-0.683-4.133c-0.254-1.278-0.5-2.369-0.775-2.979
	c0,0,0.057,0.284,0.141,0.71c0.088,0.424,0.133,1.008,0.211,1.581c0.139,1.146,0.278,2.292,0.278,2.292s-0.4-1.802-0.8-3.604
	c-0.535-1.768-1.069-3.536-1.069-3.536s-0.057-0.262-0.144-0.655c-0.071-0.399-0.236-0.907-0.388-1.421
	c-0.309-1.029-0.617-2.059-0.617-2.059s0.2,0.7,0.504,1.765c0.342,1.048,0.605,2.515,0.884,3.987
	c0.136,0.738,0.28,1.477,0.391,2.183c0.062,0.715,0.121,1.394,0.173,1.993c0.086,1.195,0.107,2.066,0.013,2.286
	c0,0,0.458,1.229,0.307-0.033c-0.076-0.633-0.304-1.893-0.818-4.247c-0.355-1.151-0.794-2.572-1.334-4.319
	c-0.298-0.864-0.704-1.781-1.106-2.798c-0.406-1.016-0.843-2.118-1.453-3.255c0,0-0.287-0.709-0.842-2.079
	c-0.26-0.697-0.677-1.515-1.181-2.485c-0.522-0.959-1.033-2.131-1.806-3.343c-1.484-2.458-3.433-5.449-6.167-8.62
	c-2.66-3.231-6.143-6.598-10.358-9.952c-8.416-6.712-20.194-13.044-34.625-16.786c-7.199-1.879-15.033-3.132-23.273-3.523
	c-4.126-0.116-8.34-0.159-12.615,0.21c-2.137,0.108-4.282,0.432-6.436,0.67C18.362,164.833,16.198,165.127,14.058,165.633z"/>
<path d="M101.628,178.071c-1-0.947-3.818-3.208-7.667-5.751c-3.813-2.609-8.752-5.289-13.639-7.628
	c-4.882-2.368-9.814-4.117-13.464-5.411c-1.846-0.579-3.372-1.058-4.435-1.391c-0.532-0.169-0.949-0.294-1.237-0.366
	c-0.287-0.077-0.438-0.118-0.438-0.118c-3.862-1.144-8.945-2.234-14.399-2.956c-5.461-0.691-11.284-1-16.591-0.939
	c-5.31,0.057-10.099,0.542-13.539,0.981c-1.721,0.215-3.107,0.488-4.064,0.634c-0.955,0.16-1.483,0.249-1.483,0.249"/>
<path d="M100.62,181.431c0,0,0.142,0.116,0.408,0.338c0.272,0.214,0.657,0.548,1.132,0.999c0.479,0.444,1.064,0.985,1.738,1.609
	c0.675,0.622,1.446,1.32,2.223,2.164c3.265,3.195,7.286,8.002,10.736,13.562c3.47,5.551,6.184,11.925,7.691,17.573
	c0.195,0.703,0.387,1.393,0.573,2.064c0.137,0.683,0.271,1.349,0.4,1.994c0.238,1.294,0.517,2.495,0.662,3.615
	c0.236,2.247,0.482,4.075,0.512,5.35"/>
<path d="M106.495,81.744c0,0-0.042-0.636,0.12-0.815c0.155-0.182,0.538,0.112,1.282,1.963c0,0,0.39,0.706,0.78,1.412
	c0.381,0.71,0.763,1.419,0.763,1.419s0.397,0.474,0.794,0.949c0.38,0.481,0.76,0.961,0.76,0.961l0.64,2.255
	c0,0-0.084,0.079-0.474,0.321c-0.193,0.111-0.466,0.295-0.841,0.544c-0.375,0.245-0.854,0.535-1.457,0.966
	c-1.208,0.811-2.93,2.059-5.255,4.009c-2.317,1.947-5.252,4.646-8.566,8.444c0,0-0.294,0.413-0.832,1.168
	c-0.28,0.369-0.593,0.839-0.967,1.376c-0.382,0.533-0.803,1.146-1.245,1.833c-0.917,1.355-1.926,3.007-2.884,4.812
	c-0.952,1.788-1.816,3.815-2.15,5.499c0,0-0.044,0.188-0.128,0.539c0.019,0.281-0.119,0.801-0.041,1.199
	c-0.004,0.469,0.131,0.785,0.33,1.202c0.152,0.407,0.771,0.938,1.734,1.582c0.279,0.146,0.56,0.301,0.843,0.468
	c0.299,0.161,0.697,0.28,1.047,0.434c0.675,0.333,1.603,0.528,2.467,0.803c0.891,0.241,1.873,0.393,2.831,0.61
	c0.798,0.078,1.742,0.184,2.661,0.14c3.666-0.06,7.309-1.479,10.39-4.42c3.079-2.9,5.463-7.091,6.795-11.348
	c1.36-4.231,1.706-8.653,1.068-11.671c-0.283-1.483-0.885-2.571-1.161-2.895c-0.335-0.422-0.824-0.651-1.274-0.732
	c-0.521-0.109-1.352-0.01-1.986,0.131c-0.651,0.132-1.182,0.277-1.498,0.34c0,0,0.617-0.293,1.586-0.549
	c0.481-0.135,1.042-0.225,1.549-0.225c0.278-0.006,0.436,0.024,0.637,0.069c0.193,0.044,0.395,0.109,0.58,0.22
	c0.191,0.097,0.368,0.233,0.523,0.398c0.172,0.147,0.269,0.344,0.454,0.607c0.343,0.602,0.706,1.485,0.911,2.604
	c0.45,2.22,0.354,5.116-0.189,7.946c-0.537,2.849-1.53,5.679-2.772,8.138c-1.237,2.47-2.74,4.551-4.207,6.111
	c-2.952,3.158-5.63,4.163-6.111,4.554c0,0,0.542-0.182,1.47-0.623c0.925-0.442,2.217-1.213,3.656-2.439
	c1.436-1.225,2.993-2.95,4.382-5.118c1.396-2.157,2.622-4.744,3.479-7.486c0.86-2.736,1.355-5.633,1.367-8.262
	c0.029-2.609-0.529-4.98-1.318-6.193c-0.637-1.163-1.777-1.654-2.75-1.774c-1.108-0.118-2.138,0.078-2.55,0.047
	c0,0,0.149-0.042,0.429-0.12c0.28-0.09,0.684-0.163,1.177-0.236c1.013-0.112,2.152-0.126,3.258,0.692
	c0.533,0.417,0.965,0.888,1.408,1.756c0.423,0.837,0.766,1.898,0.978,3.092c0.414,2.405,0.325,5.271-0.178,8.104
	c-0.982,5.716-3.681,11.217-6.565,14.706c-2.862,3.571-5.741,5.183-6.401,5.951c0,0,0.138-0.063,0.398-0.18
	c0.265-0.108,0.641-0.297,1.118-0.551c0.949-0.512,2.284-1.338,3.75-2.603c1.457-1.271,3.031-2.989,4.466-5.102
	c1.425-2.116,2.719-4.606,3.699-7.283c1.952-5.324,2.709-11.483,1.323-16.009c-0.683-2.251-2.002-3.927-3.512-4.748
	c-1.49-0.854-2.885-0.901-3.596-1.062c0,0,0.141,0.001,0.392,0.003c0.25-0.005,0.609,0.001,1.046,0.062
	c0.867,0.098,2.036,0.412,3.067,1.099c1.042,0.677,1.863,1.705,2.428,2.669c0.568,0.971,0.901,1.88,1.141,2.405
	c0,0-0.195-0.994-0.581-1.951c-0.36-0.965-0.959-1.854-0.959-1.854c0,0,0.276,0.327,0.63,0.853c0.359,0.524,0.741,1.275,1.059,2.048
	c0.615,1.559,0.871,3.203,0.871,3.204c0,0,0.086,0.958,0.071,1.909c0,0.952-0.085,1.892-0.085,1.892c0,0,0.066-0.636,0.106-1.614
	c0.043-0.979,0.027-2.304-0.156-3.668c-0.177-1.364-0.558-2.761-1.03-3.854c-0.447-1.101-1.01-1.884-1.063-2.142
	c0.003-0.022-1.158-0.798-0.232,0.2c0.418,0.527,1.36,1.542,2.247,3.722c0.864,2.171,1.605,5.522,1.28,10.303
	c0,0-0.105,0.705-0.387,2.039c-0.291,1.331-0.753,3.297-1.657,5.744c-0.893,2.443-2.218,5.387-4.324,8.496
	c-2.119,3.068-5.079,6.376-9.36,8.687c-4.235,2.322-9.875,3.313-15.646,2.094c-2.863-0.572-5.902-1.348-8.72-3.219
	c-0.736-0.413-1.335-1.063-1.997-1.645c-0.319-0.306-0.565-0.692-0.853-1.043l-0.416-0.545c-0.125-0.192-0.219-0.404-0.33-0.607
	c-0.963-1.611-1.32-3.555-1.35-5.432c-0.021-3.822,1.341-7.4,3.005-10.762c1.692-3.38,3.842-6.567,6.253-9.669
	c2.419-3.099,5.104-6.115,8.104-9.036c1.522-1.441,3.078-2.9,4.802-4.282C102.563,84.387,104.357,83.013,106.495,81.744z"/>
<path d="M106.744,126.156c0,0,0.465-0.227,1.248-0.731c0.78-0.506,1.883-1.291,3.096-2.455c2.447-2.276,5.239-6.24,6.947-11.032
	c1.741-4.727,2.466-10.278,1.541-14.421c-0.447-2.07-1.328-3.628-2.279-4.426c-1-0.872-2.153-1.098-2.92-1.169"/>
<path d="M97.773,132.977c0,0,0.745,0.042,2.064-0.004c1.315-0.054,3.223-0.253,5.429-0.935c1.104-0.333,2.27-0.805,3.467-1.389
	c1.184-0.609,2.388-1.348,3.56-2.222c2.347-1.747,4.508-4.06,6.31-6.644c3.623-5.186,5.689-11.414,6.333-16.569
	c0.33-2.583,0.316-4.91,0.13-6.735c-0.172-1.825-0.538-3.145-0.668-3.712"/>
</svg>
