<?xml version="1.0" encoding="utf-8"?>
<!-- Generator: Adobe Illustrator 16.0.0, SVG Export Plug-In . SVG Version: 6.00 Build 0)  -->
<!DOCTYPE svg PUBLIC "-//W3C//DTD SVG 1.1 Tiny//EN" "http://www.w3.org/Graphics/SVG/1.1/DTD/svg11-tiny.dtd">
<svg version="1.1" baseProfile="tiny" id="Layer_1" xmlns="http://www.w3.org/2000/svg" xmlns:xlink="http://www.w3.org/1999/xlink"
	 x="0px" y="0px" width="186.136px" height="278.985px" viewBox="0 0 186.136 278.985" xml:space="preserve">
<path fill="#020202" d="M92.41,29.074c0,0-1.536-1.841,1.391,0.879l2.441,2.075l1.94,1.359l1.653,1.647c0,0-0.068,1.061-5.311,8.723
	c0,0-1.507,3.606-4.866,7.256c0,0-24.854,25.986-27.719,27.021c0,0,16.745-15.225,17.238-16.703c0,0-15.812,14.746-17.868,15.102
	c0,0,15.548-14.108,15.608-16.581c0,0-14.311,12.987-17.08,13.604c0,0,2.978-2.279,3.5-3.139l-1.524,0.936l1.927-1.994l1.358-0.924
	c0,0-3.756,2.438-4.378,2.276c0,0-0.842,1.914,4.274-4.018C64.996,66.592,80.429,55.627,92.41,29.074z"/>
<path fill="#020202" stroke="#939598" stroke-width="0.025" d="M100.757,35.508c0,0-6.227,9.463-12.787,18.179
	c0,0-16.192,17.175-18.194,18.762c0,0-4.729,4.945-8.211,7.259"/>
<path fill="#020202" stroke="#000000" stroke-width="0.025" d="M79.57,62.537c1.57-1.145,11.077-11.845,11.077-11.845
	c3.958-4.124,10.11-15.184,10.11-15.184"/>
<path fill="#020202" stroke="#000000" stroke-width="0.025" d="M76.856,60.676c0,0-12.107,11.799-15.088,14.077"/>
<path fill="#020202" stroke="#939598" stroke-width="0.025" d="M76.738,54.1c0,0-14.198,13.339-15.689,14.188"/>
<path fill="#020202" d="M61.59,45.863c0,0-1.638,1.757,0.655-1.516l1.708-2.711l1.053-2.126l1.411-1.859
	c0,0,1.127-0.032,10.181,4.618c0,0,4.077,1.201,8.557,4.303c0,0,32.071,23.048,33.709,25.894c0,0-19.21-15.748-20.857-16.113
	c0,0,18.528,14.834,19.298,16.916c0,0-17.808-14.625-20.416-14.45c0,0,16.393,13.461,17.574,16.25c0,0-2.967-2.842-3.971-3.296
	l1.276,1.478l-2.465-1.79l-1.232-1.308c0,0,3.283,3.628,3.233,4.282c0,0,2.172,0.681-5.042-4.007
	C106.262,70.429,91.778,55.617,61.59,45.863z"/>
<path fill="#020202" stroke="#939598" stroke-width="0.025" d="M66.738,36.656c0,0,11.136,5.489,21.55,11.394
	c0,0,21.152,14.991,23.203,16.897c0,0,6.104,4.385,9.204,7.743"/>
<path fill="#020202" stroke="#000000" stroke-width="0.025" d="M99.198,55.833c-1.504-1.505-14.57-10.247-14.57-10.247
	c-5.092-3.672-17.89-8.93-17.89-8.93"/>
<path fill="#020202" stroke="#000000" stroke-width="0.025" d="M97.767,58.803c0,0,14.721,11.312,17.686,14.156"/>
<path fill="#020202" stroke="#939598" stroke-width="0.025" d="M90.885,59.561c0,0,16.74,13.312,17.918,14.763"/>
<path fill="#020202" d="M67.745,82.416c0,0,1.014,2.154-0.875-1.368l-1.563-2.793l-1.228-2.006l-1.072-2.071
	c0,0-0.018-0.749,2.669-3.709c0,0,0.694-1.889,2.485-2.854c0,0,13.313-6.389,14.955-5.676c0,0-9.095,2.617-9.306,3.455
	c0,0,8.567-2.744,9.769-1.945c0,0-8.446,2.409-8.346,4.206c0,0,7.774-2.219,9.384-1.246c0,0-1.641,0.149-1.903,0.515l0.853,0.095
	l-1.033,0.479l-0.755-0.018c0,0,2.095,0.136,2.473,0.576c0,0,0.394-0.981-2.314,0.765C81.936,68.821,73.383,68.964,67.745,82.416z"
	/>
<path fill="#020202" stroke="#939598" stroke-width="0.025" d="M62.433,73.351c0,0,3.171-3.784,6.582-6.843
	c0,0,8.658-4.344,9.759-4.484c0,0,2.533-1.217,4.472-1.13"/>
<path fill="#020202" stroke="#000000" stroke-width="0.025" d="M73.51,64.299c-0.869,0.036-5.918,3.042-5.918,3.042
	c-2.121,1.007-5.159,6.01-5.159,6.01"/>
<path fill="#020202" stroke="#000000" stroke-width="0.025" d="M75.224,67.074c0,0,6.532-2.476,8.175-2.622"/>
<path fill="#020202" stroke="#939598" stroke-width="0.025" d="M75.659,71.998c0,0,7.688-2.536,8.526-2.394"/>
<path fill="#020202" d="M73.512,69.802c0,0-0.976,2.177,0.354-1.591l0.979-3.049l0.584-2.283l0.825-2.182
	c0,0,0.725-0.455,6.764,0.245c0,0,2.68-0.477,5.703,0.581c0,0,21.687,8.31,22.868,10.213c0,0-13.076-6.7-14.153-6.401
	c0,0,12.597,6.147,13.185,7.702c0,0-12.123-6.234-13.795-5.092c0,0,11.16,5.737,12.045,7.763c0,0-2.037-1.398-2.704-1.421
	l0.888,0.828l-1.667-0.654l-0.853-0.694c0,0,2.277,1.975,2.274,2.574c0,0,1.429-0.217-3.427-1.646
	C103.382,74.693,93.391,67.038,73.512,69.802z"/>
<path fill="#020202" stroke="#939598" stroke-width="0.025" d="M76.417,59.694c0,0,7.417,0.657,14.389,1.955
	c0,0,14.294,5.294,15.7,6.208c0,0,4.127,1.58,6.273,3.385"/>
<path fill="#020202" stroke="#000000" stroke-width="0.025" d="M98.18,64.425c-1.036-0.766-9.843-3.577-9.843-3.577
	c-3.443-1.33-11.921-1.154-11.921-1.154"/>
<path fill="#020202" stroke="#000000" stroke-width="0.025" d="M97.391,67.599c0,0,9.987,4.463,12.023,5.864"/>
<path fill="#020202" stroke="#939598" stroke-width="0.025" d="M92.993,70.872c0,0,11.377,5.473,12.2,6.314"/>
<path fill="#020202" d="M71.476,33.093c0,0-2.418-1.106,1.578-1.176l3.183-0.596l2.303-1.274l2.344,0.266
	c0,0,0.779,3.11,3.354,37.89c0,0,1.831,13.879,2.503,32.684c0,0,4.182,136.31,3.141,146.599c0,0-1.044-85.523-1.874-90.889
	c0,0,1.273,81.779,0.226,88.097c0,0-0.948-79.333-2.829-86.329c0,0,0.874,73.025-0.429,81.914c0,0,0.146-14.023-0.186-17.758
	l-0.255,6.542l-0.308-10.511l0.157-6.08c0,0-0.525,16.483-1.051,17.649c0,0,0.944,7.476-0.369-22.195
	C82.964,207.927,84.383,137.584,71.476,33.093z"/>
<path fill="#020202" stroke="#939598" stroke-width="0.025" d="M81.845,29.233c0,0,3.34,42.316,5.885,83.428
	c0,0,2.915,89.482,2.858,99.062c0,0,0.797,25.938,0.352,41.367"/>
<path fill="#020202" stroke="#000000" stroke-width="0.025" d="M89.196,158.918c0.122-7.239-2.068-61.48-2.068-61.48
	c-0.654-21.667-5.282-68.205-5.282-68.205"/>
<path fill="#020202" stroke="#000000" stroke-width="0.025" d="M86.005,160.81c0,0,1.369,64.027,1.219,78.05"/>
<path fill="#020202" stroke="#939598" stroke-width="0.025" d="M80.823,142.934c0,0,1.219,73.705,0.918,79.918"/>
<path fill="#020202" d="M71.682,33.583c0,0-2.476-1.051,1.514-1.312l3.146-0.777l2.232-1.45l2.355,0.17c0,0,0.945,3.238,5.383,39.73
	c0,0,2.573,14.524,4.254,34.291c0,0,11.487,143.304,11,154.185c0,0-5.631-89.985-6.747-95.596c0,0,5.658,86.033,4.95,92.734
	c0,0-5.202-83.473-7.456-90.75c0,0,4.79,76.836,3.964,86.255c0,0-0.604-14.77-1.137-18.686l0.097,6.899l-0.871-11.051l-0.17-6.408
	c0,0,0.359,17.377-0.103,18.63c0,0,1.344,7.826-1.559-23.349C92.536,217.1,90.18,142.979,71.682,33.583z"/>
<path fill="#020202" stroke="#939598" stroke-width="0.025" d="M81.833,29.032c0,0,5.606,44.391,10.354,87.552
	c0,0,7.712,94.066,8.169,104.153c0,0,2.187,27.269,2.57,43.533"/>
<path fill="#020202" stroke="#000000" stroke-width="0.025" d="M96.131,165.212c-0.266-7.626-5.363-64.627-5.363-64.627
	c-1.816-22.778-8.936-71.553-8.936-71.553"/>
<path fill="#020202" stroke="#000000" stroke-width="0.025" d="M93.045,167.354c0,0,4.802,67.341,5.404,82.111"/>
<path fill="#020202" stroke="#939598" stroke-width="0.025" d="M86.91,148.779c0,0,5.171,77.536,5.204,84.091"/>
<path fill="#020202" d="M86.26,76.771c0,0-1.35-1.976,1.259,1.051l2.186,2.342l1.749,1.59l1.469,1.813c0,0-0.112,0.983-5.356,7.307
	c0,0-1.571,3.134-4.875,6.006c0,0-24.394,20.295-27.115,20.796c0,0,16.33-11.534,16.858-12.838c0,0-15.437,11.238-17.374,11.235
	c0,0,15.161-10.684,15.332-12.99c0,0-13.956,9.835-16.57,9.961c0,0,2.885-1.65,3.412-2.371l-1.467,0.628l1.891-1.554l1.311-0.645
	c0,0-3.619,1.671-4.191,1.418c0,0-0.874,1.656,4.174-3.067C58.951,107.455,73.862,99.698,86.26,76.771z"/>
<path fill="#020202" stroke="#939598" stroke-width="0.025" d="M93.762,84.163c0,0-6.247,7.852-12.771,14.948
	c0,0-15.902,13.452-17.845,14.612c0,0-4.641,3.863-7.998,5.462"/>
<path fill="#020202" stroke="#000000" stroke-width="0.025" d="M72.745,106.033c1.519-0.816,10.884-9.292,10.884-9.292
	c3.884-3.218,10.134-12.578,10.134-12.578"/>
<path fill="#020202" stroke="#000000" stroke-width="0.025" d="M70.295,103.847c0,0-11.844,9.081-14.73,10.729"/>
<path fill="#020202" stroke="#939598" stroke-width="0.025" d="M70.485,97.665c0,0-13.866,10.183-15.297,10.734"/>
<path fill="#020202" d="M66.121,95.626c0,0-1.558,1.838,0.51-1.582l1.502-2.832l0.862-2.219l1.294-1.943
	c0,0,1.237-0.04,11.875,4.751c0,0,4.664,1.228,10.039,4.432c0,0,38.604,23.818,40.81,26.771c0,0-23.396-16.289-25.263-16.66
	c0,0,22.516,15.342,23.656,17.504c0,0-21.692-15.127-24.543-14.93c0,0,19.968,13.924,21.663,16.82c0,0-3.671-2.942-4.842-3.409
	l1.615,1.531l-2.969-1.849l-1.543-1.354c0,0,4.13,3.758,4.167,4.44c0,0,2.491,0.697-6.122-4.144
	C118.833,120.955,100.778,105.615,66.121,95.626z"/>
<path fill="#020202" stroke="#939598" stroke-width="0.025" d="M70.501,86.014c0,0,13.051,5.653,25.364,11.743
	c0,0,25.431,15.49,27.96,17.463c0,0,7.347,4.531,11.237,8.01"/>
<path fill="#020202" stroke="#000000" stroke-width="0.025" d="M108.99,105.799c-1.87-1.559-17.507-10.587-17.507-10.587
	c-6.131-3.794-20.981-9.198-20.981-9.198"/>
<path fill="#020202" stroke="#000000" stroke-width="0.025" d="M107.83,108.898c0,0,17.822,11.695,21.491,14.639"/>
<path fill="#020202" stroke="#939598" stroke-width="0.025" d="M100.348,109.725c0,0,20.33,13.766,21.833,15.271"/>
<path fill="#020202" d="M89.047,84.543c0,0-1.035-2.156,1.061,1.247l1.779,2.664l1.458,1.857l1.167,2.021
	c0,0-0.227,0.927-5.952,6.054c0,0-1.867,2.731-5.339,4.889c0,0-25.522,15.051-28.155,15.03c0,0,16.836-8.097,17.494-9.256
	c0,0-15.955,7.977-17.785,7.615c0,0,15.628-7.493,16.069-9.687c0,0-14.384,6.898-16.869,6.535c0,0,2.926-1.056,3.512-1.654
	l-1.462,0.334L58,111.044l1.317-0.379c0,0-3.623,0.941-4.134,0.591c0,0-1.027,1.436,4.318-2.185
	C59.502,109.072,74.537,104.355,89.047,84.543z"/>
<path fill="#020202" stroke="#939598" stroke-width="0.025" d="M95.233,93.061c0,0-6.859,6.414-13.889,12.049
	c0,0-16.666,10.025-18.643,10.784c0,0-4.855,2.865-8.223,3.785"/>
<path fill="#020202" stroke="#000000" stroke-width="0.025" d="M72.708,110.257c1.535-0.505,11.417-6.944,11.417-6.944
	c4.062-2.384,11.108-10.252,11.108-10.252"/>
<path fill="#020202" stroke="#000000" stroke-width="0.025" d="M70.661,107.695c0,0-12.298,6.563-15.226,7.616"/>
<path fill="#020202" stroke="#939598" stroke-width="0.025" d="M71.594,101.769c0,0-14.343,7.25-15.763,7.517"/>
<path fill="#020202" d="M46.173,108.947c0,0-1.119,2.159-0.042-1.689l0.637-3.144l0.118-2.4l0.757-2.211
	c0,0,1.481-0.29,16.348,2.361c0,0,6.154,0.287,13.993,2.414c0,0,56.631,16.072,60.53,18.588c0,0-35.094-11.601-37.508-11.594
	c0,0,33.635,10.829,35.916,12.767c0,0-32.549-10.781-35.916-10.006c0,0,29.961,9.922,33.219,12.484c0,0-5.667-2.208-7.278-2.439
	l2.592,1.209l-4.362-1.253l-2.432-1.046c0,0,6.563,2.934,6.893,3.61c0,0,3.304,0.195-9.135-2.917
	C120.502,123.679,92.267,111.949,46.173,108.947z"/>
<path fill="#020202" stroke="#939598" stroke-width="0.025" d="M47.469,98.419c0,0,18.145,3.028,35.58,6.643
	c0,0,37.224,10.388,41.106,11.854c0,0,10.776,3.057,16.933,5.758"/>
<path fill="#020202" stroke="#000000" stroke-width="0.025" d="M102.28,110.472c-2.912-1.185-25.593-7.075-25.593-7.075
	c-8.999-2.564-29.218-4.978-29.218-4.978"/>
<path fill="#020202" stroke="#000000" stroke-width="0.025" d="M102.167,113.815c0,0,26.437,8.121,32.103,10.332"/>
<path fill="#020202" stroke="#939598" stroke-width="0.025" d="M93.459,116.158c0,0,30.333,9.691,32.779,10.896"/>
<path fill="#020202" d="M87.924,119.052c0,0-1.52-1.847,1.34,0.944l2.377,2.148l1.875,1.438l1.62,1.679c0,0-0.015,0.976-4.554,7.581
	c0,0-1.239,3.198-4.207,6.265c0,0-22.001,21.743-24.628,22.434c0,0,14.929-12.536,15.321-13.857c0,0-14.08,12.179-15.984,12.316
	c0,0,13.863-11.613,13.806-13.897c0,0-12.761,10.691-15.318,11.004c0,0,2.675-1.833,3.123-2.581l-1.381,0.724l1.707-1.666
	l1.226-0.729c0,0-3.395,1.907-3.982,1.7c0,0-0.697,1.693,3.805-3.322C64.069,151.233,77.971,142.52,87.924,119.052z"/>
<path fill="#020202" stroke="#939598" stroke-width="0.025" d="M96.02,125.787c0,0-5.376,8.181-11.097,15.639
	c0,0-14.322,14.393-16.118,15.675c0,0-4.186,4.138-7.33,5.956"/>
<path fill="#020202" stroke="#000000" stroke-width="0.025" d="M77.49,148.836c1.414-0.913,9.794-9.935,9.794-9.935
	c3.505-3.449,8.736-13.115,8.736-13.115"/>
<path fill="#020202" stroke="#000000" stroke-width="0.025" d="M74.87,146.861c0,0-10.758,9.796-13.435,11.626"/>
<path fill="#020202" stroke="#939598" stroke-width="0.025" d="M74.454,140.762c0,0-12.639,11.027-13.992,11.674"/>
<path fill="#020202" d="M97.293,127.591c0,0-0.754-2.264,0.823,1.407l1.352,2.904l1.125,2.071l0.871,2.164
	c0,0-0.238,0.832-5.308,4.481c0,0-1.709,2.195-4.732,3.505c0,0-22.188,8.869-24.394,8.291c0,0,14.539-4.112,15.152-5.073
	c0,0-13.795,4.185-15.31,3.455c0,0,13.494-3.796,13.98-5.783c0,0-12.421,3.495-14.485,2.624c0,0,2.509-0.382,3.031-0.824
	l-1.243,0.007l1.717-0.67l1.124-0.08c0,0-3.087,0.125-3.497-0.315c0,0-0.937,1.144,3.735-1.157
	C71.236,144.597,84.086,143.309,97.293,127.591z"/>
<path fill="#020202" stroke="#939598" stroke-width="0.025" d="M102.03,136.982c0,0-6.087,4.63-12.276,8.485
	c0,0-14.498,5.979-16.194,6.279c0,0-4.222,1.688-7.093,1.848"/>
<path fill="#020202" stroke="#000000" stroke-width="0.025" d="M82.243,148.52c1.313-0.154,9.936-4.167,9.936-4.167
	c3.531-1.4,9.852-7.37,9.852-7.37"/>
<path fill="#020202" stroke="#000000" stroke-width="0.025" d="M80.663,145.656c0,0-10.655,3.619-13.165,3.998"/>
<path fill="#020202" stroke="#939598" stroke-width="0.025" d="M81.756,140.232c0,0-12.405,3.838-13.608,3.79"/>
<path fill="#020202" d="M69.03,127.195c0,0-1.559,1.834,0.536-1.569l1.53-2.816l0.895-2.203l1.306-1.936c0,0,1.2-0.052,11.381,4.572
	c0,0,4.486,1.164,9.609,4.276c0,0,36.773,23.14,38.832,26.037c0,0-22.237-15.857-24.036-16.204c0,0,21.409,14.93,22.457,17.056
	c0,0-20.617-14.727-23.385-14.502c0,0,18.979,13.555,20.543,16.401c0,0-3.479-2.87-4.601-3.32l1.524,1.497l-2.828-1.797
	l-1.459-1.323c0,0,3.902,3.672,3.921,4.346c0,0,2.395,0.663-5.823-4.032C119.432,151.679,102.346,136.704,69.03,127.195z"/>
<path fill="#020202" stroke="#939598" stroke-width="0.025" d="M73.531,117.645c0,0,12.495,5.451,24.265,11.341
	c0,0,24.23,15.046,26.629,16.97c0,0,6.998,4.402,10.675,7.8"/>
<path fill="#020202" stroke="#000000" stroke-width="0.025" d="M110.299,136.799c-1.771-1.521-16.683-10.282-16.683-10.282
	c-5.84-3.687-20.086-8.872-20.086-8.872"/>
<path fill="#020202" stroke="#000000" stroke-width="0.025" d="M109.092,139.876c0,0,16.958,11.374,20.435,14.246"/>
<path fill="#020202" stroke="#939598" stroke-width="0.025" d="M101.821,140.772c0,0,19.333,13.396,20.749,14.867"/>
<path fill="#020202" d="M85.456,155.205c0,0-0.552,2.322,0.025-1.632l0.364-3.182l0.115-2.355l0.394-2.299
	c0,0,0.664-0.58,7.188-0.995c0,0,2.722-0.959,6.143-0.471c0,0,24.695,4.218,26.359,5.877c0,0-15.261-4.207-16.331-3.716
	c0,0,14.633,3.751,15.595,5.174c0,0-14.153-3.923-15.667-2.493c0,0,13.028,3.61,14.406,5.443c0,0-2.456-1.004-3.165-0.905
	l1.118,0.653l-1.901-0.34l-1.051-0.527c0,0,2.834,1.529,2.962,2.119c0,0,1.46-0.475-3.975-0.995
	C118.035,154.561,105.819,148.849,85.456,155.205z"/>
<path fill="#020202" stroke="#939598" stroke-width="0.025" d="M86.305,144.72c0,0,7.968-0.709,15.605-0.706
	c0,0,16.236,2.601,17.92,3.244c0,0,4.699,0.801,7.359,2.187"/>
<path fill="#020202" stroke="#000000" stroke-width="0.025" d="M110.297,145.399c-1.261-0.565-11.165-1.723-11.165-1.723
	c-3.924-0.681-12.827,1.043-12.827,1.043"/>
<path fill="#020202" stroke="#000000" stroke-width="0.025" d="M110.161,148.669c0,0,11.512,2.569,13.967,3.577"/>
<path fill="#020202" stroke="#939598" stroke-width="0.025" d="M106.238,152.696c0,0,13.199,3.311,14.253,3.988"/>
<path fill="#020202" d="M78.673,150.822c0,0-0.833-2.254,1.072,1.259l1.667,2.736l1.441,1.887l1.032,2.094
	c0,0-0.497,1.035-8.953,7.202c0,0-2.995,3.168-7.908,5.867c0,0-35.933,18.96-39.284,19.196c0,0,23.289-10.505,24.39-11.837
	c0,0-22.14,10.287-24.392,10.072c0,0,21.613-9.727,22.672-12.167c0,0-19.895,8.954-22.981,8.802c0,0,3.969-1.442,4.851-2.153
	l-1.939,0.509l2.777-1.449l1.765-0.543c0,0-4.831,1.384-5.403,1.053c0,0-1.634,1.669,5.998-2.813
	C35.477,180.536,55.708,173.903,78.673,150.822z"/>
<path fill="#020202" stroke="#939598" stroke-width="0.025" d="M84.641,159.524c0,0-10.191,7.685-20.423,14.534
	c0,0-23.509,12.596-26.199,13.62c0,0-6.837,3.609-11.337,4.946"/>
<path fill="#020202" stroke="#000000" stroke-width="0.025" d="M52.046,180.533c2.07-0.704,16.121-8.712,16.121-8.712
	c5.716-3.004,16.474-12.297,16.474-12.297"/>
<path fill="#020202" stroke="#000000" stroke-width="0.025" d="M50.014,177.934c0,0-17.158,8.382-21.129,9.821"/>
<path fill="#020202" stroke="#939598" stroke-width="0.025" d="M52.54,171.365c0,0-19.921,9.334-21.791,9.766"/>
<path fill="#020202" d="M82.086,170.484c0,0,0.123-2.403,0.518,1.573l0.485,3.168l0.616,2.296l0.136,2.331
	c0,0-0.906,0.767-11.615,3.233c0,0-4.199,1.783-10.057,2.399c0,0-42.524,3.782-45.86,2.718c0,0,26.827-0.802,28.439-1.613
	c0,0-25.628,1.04-27.715-0.02c0,0,24.888-0.724,26.915-2.575c0,0-22.909,0.667-25.829-0.655c0,0,4.429,0.185,5.573-0.135
	l-2.084-0.272l3.28-0.277l1.929,0.173c0,0-5.238-0.568-5.654-1.094c0,0-2.266,0.919,6.953-0.305
	C28.117,181.43,50.396,183.037,82.086,170.484z"/>
<path fill="#020202" stroke="#939598" stroke-width="0.025" d="M84.271,180.813c0,0-13.011,3.206-25.716,5.624
	c0,0-27.9,2.652-30.921,2.569c0,0-8.092,0.721-12.991,0.235"/>
<path fill="#020202" stroke="#000000" stroke-width="0.025" d="M44.128,187.767c2.291,0.142,19.163-1.887,19.163-1.887
	c6.761-0.591,20.979-5.067,20.979-5.067"/>
<path fill="#020202" stroke="#000000" stroke-width="0.025" d="M43.235,184.586c0,0-20.03,1.185-24.459,0.997"/>
<path fill="#020202" stroke="#939598" stroke-width="0.025" d="M48.378,179.479c0,0-23.091,1.009-25.075,0.692"/>
<path fill="#020202" d="M87.351,159.096c0,0-1.099,2.161,0.005-1.68l0.675-3.135l0.173-2.39l0.763-2.208
	c0,0,1.389-0.306,15.181,2.165c0,0,5.73,0.216,12.984,2.243c0,0,52.384,15.35,55.954,17.809c0,0-32.42-11.145-34.67-11.111
	c0,0,31.078,10.393,33.155,12.294c0,0-30.067-10.357-33.228-9.548c0,0,27.678,9.533,30.647,12.045c0,0-5.226-2.132-6.723-2.345
	l2.386,1.174l-4.035-1.198l-2.239-1.014c0,0,6.043,2.844,6.332,3.513c0,0,3.075,0.156-8.44-2.798
	C156.271,172.912,130.25,161.562,87.351,159.096z"/>
<path fill="#020202" stroke="#939598" stroke-width="0.025" d="M88.833,148.608c0,0,16.839,2.807,33.001,6.207
	c0,0,34.437,9.913,38.019,11.328c0,0,9.968,2.92,15.638,5.538"/>
<path fill="#020202" stroke="#000000" stroke-width="0.025" d="M139.624,159.979c-2.685-1.146-23.679-6.749-23.679-6.749
	c-8.323-2.45-27.112-4.622-27.112-4.622"/>
<path fill="#020202" d="M94.683,186.306c0,0,0.089,2.417-0.768-1.486l-0.884-3.082l-0.956-2.19l-0.387-2.303
	c0,0,1.001-0.912,13.476-5.105c0,0,4.811-2.458,11.705-4.021c0,0,50.12-10.654,54.185-10.133c0,0-31.773,5.141-33.608,6.211
	c0,0,30.325-5.185,32.906-4.464c0,0-29.478,4.749-31.704,6.924c0,0,27.134-4.373,30.729-3.526c0,0-5.275,0.532-6.604,1.036
	l2.5-0.066l-3.867,0.807l-2.307,0.14c0,0,6.274-0.281,6.819,0.177c0,0,2.601-1.284-8.226,1.43
	C157.694,166.652,131.086,168.654,94.683,186.306z"/>
<path fill="#020202" stroke="#939598" stroke-width="0.025" d="M91.084,176.355c0,0,15.135-5.304,29.984-9.772
	c0,0,32.866-7.16,36.461-7.566c0,0,9.537-2.028,15.4-2.336"/>
<path fill="#020202" stroke="#000000" stroke-width="0.025" d="M138.067,162.922c-2.733,0.229-22.567,4.983-22.567,4.983
	c-7.969,1.684-24.415,8.45-24.415,8.45"/>
</svg>
