<?xml version="1.0" encoding="utf-8"?>
<!-- Generator: Adobe Illustrator 16.0.0, SVG Export Plug-In . SVG Version: 6.00 Build 0)  -->
<!DOCTYPE svg PUBLIC "-//W3C//DTD SVG 1.1 Tiny//EN" "http://www.w3.org/Graphics/SVG/1.1/DTD/svg11-tiny.dtd">
<svg version="1.1" baseProfile="tiny" id="Layer_1" xmlns="http://www.w3.org/2000/svg" xmlns:xlink="http://www.w3.org/1999/xlink"
	 x="0px" y="0px" width="172px" height="183px" viewBox="0 0 172 183" xml:space="preserve">
<g>
	<path d="M18.162,83.688c-0.649,0.333-1.139,0.548-1.316,0.541C16.845,84.229,15.694,85.514,18.162,83.688z"/>
	<path d="M100.625,23.833c6.027-5.81,6.551-6.7,6.551-6.7l-1.314-1.936l-1.998-1.403l-2.225-2.317
		c-2.482-3.132-1.508-0.862-1.508-0.862C60.02,54.879,26.82,76.7,26.82,76.7c-4.664,3.894-7.249,5.947-8.658,6.989
		c2.484-1.275,7.439-4.386,7.439-4.386l-2.89,1.859l-4.642,3.67l3.163-1.933c-1.513,1.48-8.048,5.938-8.048,5.938
		c4.885-1.87,37.911-26.375,37.911-26.375c-0.253,0.462-1.02,1.271-2.163,2.33L15.214,90.15
		c5.626-3.834,27.571-20.625,33.582-25.232c-8.335,7.669-35.644,27.931-35.644,27.931c1.954-0.679,13.994-9.379,24.419-17.059
		l-10.699,8.816c-7.665,5.755-13.993,10.455-13.993,10.455c1.044-0.493,4.167-2.704,8.511-5.938l-10.438,8.601
		c7.364-4.68,18.797-13.768,18.797-13.768c2.215-1.537,13.127-10.152,23.502-18.396l-0.086,0.076
		c2.191-1.458,12.75-10.029,19.993-15.948c0.237-0.189,0.368-0.294,0.368-0.294c0.029-0.025,0.057-0.051,0.086-0.076
		c3.774-3.086,6.542-5.365,6.542-5.365c9.557-7.582,28.108-26.413,28.108-26.413L100.625,23.833z"/>
	<path d="M19.21,80.601c3.04-1.789,36.167-26.788,36.167-26.788L19.21,80.601z"/>
</g>
<g>
	<path d="M66.215,26.397c0,0-2.089,1.32,0.609-1.628l1.934-2.566l1.065-2.198l1.704-1.604c0,0,1.768,0.688,17.348,12.866
		c0,0,6.765,4.273,14.697,11.384c0,0,57.027,52.048,60.406,56.968c0,0-34.703-33.81-37.401-35.373c0,0,33.371,32.128,35.167,35.448
		c0,0-32.177-31.377-36.24-32.832c0,0,29.619,28.882,32.262,33.427c0,0-5.473-5.776-7.184-7.043l2.426,2.831l-4.387-4.024
		l-2.31-2.572c0,0,6.193,7.047,6.298,7.902c0,0,3.615,2.332-9.073-8.703C143.537,88.681,116.548,59.208,66.215,26.397z"/>
	<path d="M71.754,17.262c0,0,19.096,14.666,37.172,29.426c0,0,37.552,34.043,41.32,37.958c0,0,10.853,9.903,16.681,16.466"/>
	<path d="M128.31,64.316c-2.793-3.016-25.845-23.342-25.845-23.342c-9.058-8.281-30.71-23.712-30.71-23.712"/>
	<path d="M126.885,67.413c0,0,26.381,24.883,31.852,30.661"/>
	<path d="M116.245,63.973c0,0,30.125,28.904,32.389,31.636"/>
</g>
<g>
	<path d="M28.002,66.091c0,0-2.453,0.049,1.407-0.984l3.018-1.095l2.099-1.215l2.294-0.453c0,0,1.073,1.366,7.126,18.171
		c0,0,3.193,6.505,5.769,15.772c0,0,18.003,67.343,18.05,72.766c0,0-9.768-42.647-11.12-45.132c0,0,9.606,40.711,9.239,44.143
		c0,0-9.041-39.565-11.577-42.605c0,0,8.323,36.419,7.972,41.205c0,0-1.294-7.072-1.998-8.863l0.423,3.346l-1.374-5.196l-0.471-3.09
		c0,0,1.179,8.401,0.791,9.118c0,0,1.679,3.515-2.629-11.043C57.021,150.936,51.192,115.289,28.002,66.091z"/>
	<path d="M37.641,61.562c0,0,7.565,20.396,14.238,40.386c0,0,11.983,44.166,12.909,48.986c0,0,3.427,12.814,4.576,20.667"/>
	<path d="M58.034,124.789c-0.623-3.662-8.297-30.329-8.297-30.329c-2.852-10.707-12.096-32.898-12.096-32.898"/>
	<path d="M55.139,126.536c0,0,7.881,31.781,9.172,38.854"/>
	<path d="M48.293,118.863c0,0,8.727,36.674,9.072,39.867"/>
</g>
<g>
	<path d="M50.116,165.395c0,0-0.458,2.369-0.365-1.626l-0.115-3.203l-0.378-2.354l0.162-2.33c0,0,1.113-0.649,13.372-1.774
		c0,0,4.916-1.25,11.523-1.139c0,0,47.872,1.5,51.445,2.968c0,0-29.989-2.519-31.893-1.913c0,0,28.684,2.133,30.867,3.443
		c0,0-27.818-2.356-30.324-0.769c0,0,25.606,2.168,28.682,3.84c0,0-4.908-0.73-6.227-0.555l2.285,0.527l-3.691-0.13l-2.125-0.41
		c0,0,5.758,1.211,6.151,1.784c0,0,2.646-0.632-7.786-0.556C111.699,161.199,87.1,156.852,50.116,165.395z"/>
	<path d="M49.07,154.875c0,0,14.922-1.574,29.398-2.404c0,0,31.431,0.814,34.785,1.271c0,0,9.109,0.284,14.501,1.371"/>
	<path d="M94.715,152.933c-2.532-0.424-21.598-0.495-21.598-0.495c-7.609-0.249-24.047,2.437-24.047,2.437"/>
	<path d="M95.283,156.2c0,0,22.469,1.299,27.377,2.033"/>
	<path d="M88.869,160.632c0,0,25.854,1.852,28.022,2.411"/>
</g>
<g>
	<path d="M122.782,167.728c0,0,2.252,0.949-1.685,0.264l-3.196-0.294l-2.409,0.179l-2.274-0.544c0,0-0.415-1.588,0.984-18.241
		c0,0-0.231-6.79,1.234-15.665c0,0,11.298-64.207,13.484-68.81c0,0-8.641,40-8.432,42.648c0,0,7.992-38.299,9.737-41.052
		c0,0-8.036,37.102-6.978,40.696c0,0,7.396-34.151,9.682-38.055c0,0-1.729,6.501-1.826,8.3l0.99-3l-0.886,4.948l-0.841,2.802
		c0,0,2.38-7.579,3.028-8.027c0,0-0.083-3.649-2.146,10.398C131.251,84.274,121.904,116.766,122.782,167.728z"/>
	<path d="M112.151,167.662c0,0,1.5-20.299,3.645-39.895c0,0,7.249-42.18,8.388-46.629c0,0,2.148-12.218,4.331-19.32"/>
	<path d="M119.584,105.97c-0.939,3.348-4.917,28.992-4.917,28.992c-1.806,10.204-2.516,32.7-2.516,32.7"/>
	<path d="M122.935,105.663c0,0,5.892-30.052,7.625-36.553"/>
	<path d="M126.01,114.915c0,0,7.133-34.53,8.131-37.369"/>
</g>
</svg>
